<svg id="Layer" enable-background="new 0 0 64 64" height="512" viewBox="0 0 64 64" width="512" xmlns="http://www.w3.org/2000/svg"><path d="m17 26h20c.552 0 1-.448 1-1s-.448-1-1-1h-4v-8h13v8h-3c-.552 0-1 .448-1 1s.448 1 1 1h4c.552 0 1-.448 1-1v-10c0-.552-.448-1-1-1h-20c-.552 0-1 .448-1 1s.448 1 1 1h4v8h-13v-8h3c.552 0 1-.448 1-1s-.448-1-1-1h-4c-.552 0-1 .448-1 1v10c0 .552.448 1 1 1z"/><path d="m55 16h-3v-5c0-.552-.448-1-1-1h-38c-.552 0-1 .448-1 1v5h-3c-.552 0-1 .448-1 1v6c0 .552.448 1 1 1h3v21 8c0 .552.448 1 1 1h10c.552 0 1-.448 1-1v-7h16v7c0 .552.448 1 1 1h10c.552 0 1-.448 1-1v-8-21h3c.552 0 1-.448 1-1v-6c0-.552-.448-1-1-1zm-32 28h-9v-14h36v14h-9zm-9-32h36v5 6 5h-36v-5-6zm-4 10v-4h2v4zm12 30h-8v-6h8zm28 0h-8v-6h8zm4-30h-2v-4h2z"/><path d="m21 32c-2.757 0-5 2.243-5 5s2.243 5 5 5 5-2.243 5-5-2.243-5-5-5zm0 8c-1.654 0-3-1.346-3-3s1.346-3 3-3 3 1.346 3 3-1.346 3-3 3z"/><path d="m43 32c-2.757 0-5 2.243-5 5s2.243 5 5 5 5-2.243 5-5-2.243-5-5-5zm0 8c-1.654 0-3-1.346-3-3s1.346-3 3-3 3 1.346 3 3-1.346 3-3 3z"/><circle cx="40" cy="25" r="1"/><circle cx="24" cy="15" r="1"/></svg>